# xmcd
#
# Track frame offsets: 
#        150
#        15923
#        33961
#        56475
#        76942
#        89488
#        106588
#        121288
#        140713
#        157340
#        174065
#        191188
#
# Disc length: 2720 seconds
#
# Revision: 0
# Processed by: cddbd v1.5.2PL0 Copyright (c) Steve Scherf et al.
# Submitted via: ExactAudioCopy v0.90b4
#
DISCID=910a9e0c
DTITLE=Desert Reign - Once And For All
DYEAR=2006
DGENRE=Country Gospel
TTITLE0=Count it all Joy
TTITLE1=Once and for All
TTITLE2=Freedom isnt Free
TTITLE3=Mending Fences
TTITLE4=The Gift
TTITLE5=You mean more than Life
TTITLE6=Dream Again
TTITLE7=Heartbeat Away
TTITLE8=Rose of San Antone(saved)
TTITLE9=Jesus leaves the light on
TTITLE10=Christian Cowgirl
TTITLE11=I'm on my way to Heaven
EXTD=
EXTT0=
EXTT1=
EXTT2=
EXTT3=
EXTT4=
EXTT5=
EXTT6=
EXTT7=
EXTT8=
EXTT9=
EXTT10=
EXTT11=
PLAYORDER=
